HIERARCHY
ROOT pelvis
{
  OFFSET 0 100 0
  CHANNELS 6 Xposition Yposition Zposition Zrotation Xrotation Yrotation
  JOINT pelvis_right_femur
  {
    OFFSET -10.78128 -3.44521 -0.5502486
    CHANNELS 3 Zrotation Xrotation Yrotation
    JOINT right_femur_tibia
    {
      OFFSET -0.8047443 -44.0398 -0.1307829
      CHANNELS 3 Zrotation Xrotation Yrotation
      JOINT right_tibia_foot
      {
        OFFSET 3.006224 -47.83518 -5
        CHANNELS 3 Zrotation Xrotation Yrotation
        End Site
        {
          OFFSET 0 -5 15
        }
      }
    }
  }
  JOINT pelvis_left_femur
  {
    OFFSET 10.78128 -3.44521 -0.5502486
    CHANNELS 3 Zrotation Xrotation Yrotation
    JOINT left_femur_tibia
    {
      OFFSET 0.8047443 -44.0398 -0.1307829
      CHANNELS 3 Zrotation Xrotation Yrotation
      JOINT left_tibia_foot
      {
        OFFSET -4.370144 -48.10324 -4.275266
        CHANNELS 3 Zrotation Xrotation Yrotation
        End Site
        {
          OFFSET 0 -5 15
        }
      }
    }
  }
  JOINT pelvis_spine1
  {
    OFFSET 0 6.468898 -3.129235
    CHANNELS 3 Zrotation Xrotation Yrotation
    JOINT spine1
    {
      OFFSET 0 23.15396 4.99043
      CHANNELS 3 Zrotation Xrotation Yrotation
      JOINT spine2
      {
        OFFSET 0 20.79997 -5.064912
        CHANNELS 3 Zrotation Xrotation Yrotation
        JOINT neck
        {
          OFFSET 0 14.38658 9.616178
          CHANNELS 3 Zrotation Xrotation Yrotation
          End Site
          {
            OFFSET 0 20 0
          }
        }
      }
      JOINT right_manubrium
      {
        OFFSET -5.722621 16.35077 3.967754
        CHANNELS 3 Zrotation Xrotation Yrotation
        JOINT right_clavicle
        {
          OFFSET -13.16364 1.694482 -4.693211
          CHANNELS 3 Zrotation Xrotation Yrotation
          JOINT right_humerus
          {
            OFFSET -28.5034 -0.3100689 -2.792744
            CHANNELS 3 Zrotation Xrotation Yrotation
            JOINT right_radius
            {
              OFFSET -25.15693 0.02248979 -1.271978
              CHANNELS 3 Zrotation Xrotation Yrotation
              End Site
              {
                OFFSET -15 0 0
              }
            }
          }
        }
      }
      JOINT left_manubrium
      {
        OFFSET 5.722621 16.35077 3.967754
        CHANNELS 3 Zrotation Xrotation Yrotation
        JOINT left_clavicle
        {
          OFFSET 13.16364 1.694482 -4.693211
          CHANNELS 3 Zrotation Xrotation Yrotation
          JOINT left_humerus
          {
            OFFSET 29.39168 -1.063119 -2.237045
            CHANNELS 3 Zrotation Xrotation Yrotation
            JOINT left_radius
            {
              OFFSET 24.59957 -0.9528479 0.9047498
              CHANNELS 3 Zrotation Xrotation Yrotation
              End Site
              {
                OFFSET 15 -0 -0
              }
            }
          }
        }
      }
    }
  }
}
MOTION
Frames: 15
Frame Time: 0.0416666666667
0 103.5113 0 1.269597 -1.172562 0.08001918 2.767832 -16.46523 7.676921 -0 36.13801 -0 -5.347256 -15.93638 -3.352467 -7.161201 11.82742 -23.05024 -0 4.530595 -0 6.134837 -18.26551 24.85034 -2.281212 -3.46819 5.649808 2.049034 10.23775 -7.604782 1.657354 21.67259 5.301261 1.977553 -24.56394 9.187169 4.277664 -21.27033 11.53147 85.40876 32.01048 -17.55047 -0 0 19.47416 -10.78681 8.232475 4.071544 7.375956 -20.26855 0.3132662 -94.46306 20.98069 23.69343 0 0 -7.882062 15.16611 17.21813 -6.131169
0.21603 103.4583 1.57478 0.4278639 -0.08405935 0.05813112 3.821912 -20.49026 7.726232 -0 36.16454 -0 -5.828888 -14.70851 -3.100048 -6.717548 12.37199 -23.25188 -0 5.39355 -0 3.993843 -20.41766 24.26711 -2.222703 -3.151535 5.529873 2.163 10.24177 -7.606512 1.5455 21.56599 5.652317 2.262302 -24.82701 9.21758 4.36028 -20.84247 11.64188 85.68292 32.52938 -17.82345 -0 0 18.57061 -10.74097 8.433632 4.302092 7.190144 -20.36495 0.1554862 -94.12275 21.06866 23.15274 0 0 -8.977154 14.77386 16.42629 -5.533326
0.4178201 103.2666 3.390517 -0.01222067 1.003723 0.08559852 4.678029 -24.54889 7.358419 -0 32.96025 -0 -6.018036 -12.98513 -2.624108 -6.492347 12.54326 -22.37494 -0 5.559535 -0 4.346889 -21.41416 23.74417 -2.10002 -2.567696 5.206186 2.437807 10.27316 -7.723995 1.350207 21.33511 6.297749 2.724089 -25.32704 9.35319 4.38463 -20.14378 11.91574 86.36187 33.11082 -18.46253 -0 0 17.05658 -10.674 8.736289 4.601227 6.923437 -20.54132 -0.09513513 -93.31184 20.7941 21.85671 0 0 -10.85138 14.57887 14.99514 -5.342705
0.6206007 102.9005 5.594736 -0.5238674 2.178281 0.187734 5.666787 -29.03216 6.958471 -0 28.64528 -0 -6.153869 -10.72577 -2.200296 -6.175859 12.78072 -21.06429 -0 5.945663 -0 4.650273 -22.47865 22.8252 -2.004533 -2.275508 4.877288 2.716746 10.21153 -7.894023 1.290634 21.14585 6.722833 2.981236 -25.78404 9.624098 4.467414 -19.65357 12.04694 86.89401 33.4439 -19.1733 -0 0 16.05669 -9.996474 8.783705 4.403762 6.889145 -20.68731 -0.1869478 -92.7794 20.61311 20.75752 0 0 -12.30578 14.93279 14.30002 -5.757603
0.8399247 102.3489 8.304584 -1.00737 3.273018 0.4019148 6.648069 -33.10304 6.677139 -0 23.81333 -0 -6.135751 -8.315364 -1.957934 -5.839149 13.11586 -19.52795 -0 6.656247 -0 4.820921 -23.37237 21.5916 -1.920545 -2.024584 4.537939 3.007197 10.10616 -8.073785 1.23669 20.93244 7.140572 3.214197 -26.23386 9.916533 4.568047 -19.19554 12.15199 87.36156 33.77864 -19.86469 -0 0 15.09517 -9.222438 8.808096 4.187772 6.908257 -20.83546 -0.265146 -92.20387 20.423 19.6215 0 0 -13.94251 15.35178 13.66189 -6.214393
1.085521 101.6149 11.67918 -1.429928 4.137856 0.7756494 7.480738 -36.30873 6.351592 -0 18.57198 -0 -6.029909 -5.737705 -1.956656 -5.489681 13.68381 -17.74982 -0 7.984725 -0 4.522611 -23.99952 19.82944 -1.862091 -1.815815 4.225222 3.273009 9.97857 -8.237079 1.17943 20.7146 7.528825 3.416776 -26.62341 10.18398 4.661314 -18.80322 12.23464 87.72911 34.08972 -20.45311 -0 0 14.2251 -8.519773 8.829959 4.03275 6.965687 -20.97675 -0.3389005 -91.60743 20.21878 18.5406 0 0 -15.6417 15.74612 13.07692 -6.62417
1.35059 100.762 15.83349 -1.716925 4.547967 1.338289 7.901068 -37.73737 5.843325 -0 13.93477 -0 -5.975396 -3.414683 -2.213227 -5.166153 14.5401 -15.98824 -0 10.26743 -0 3.352967 -24.02776 17.49586 -1.832345 -1.630509 3.961645 3.485315 9.863546 -8.372445 1.100595 20.50139 7.889623 3.604595 -26.91117 10.37595 4.722844 -18.47423 12.30669 88.01684 34.35779 -20.92338 -0 0 13.42128 -8.089574 8.902021 4.032344 7.041587 -21.12808 -0.4371414 -90.97549 19.99728 17.53917 0 0 -17.35777 15.98481 12.48083 -6.849997
1.605369 99.95977 20.80022 -1.882171 4.457965 2.081681 7.868252 -36.84981 5.156046 -0 11.20018 -0 -6.232641 -1.874934 -2.569413 -4.834882 15.53968 -14.55106 -0 13.9697 -0 1.060773 -22.95028 14.69404 -1.829099 -1.469306 3.76884 3.615796 9.797852 -8.474656 0.9980376 20.31487 8.202021 3.777282 -27.0573 10.45602 4.728704 -18.21878 12.3731 88.25346 34.52672 -21.27815 -0 0 12.71291 -8.07731 9.049415 4.215371 7.123898 -21.30067 -0.5711949 -90.34369 19.76695 16.66842 0 0 -18.92424 15.99272 11.87852 -6.83587
1.808293 99.47623 26.47671 -2.077471 4.066032 2.902944 7.74067 -33.88826 4.594522 -0 11.45859 -0 -7.004465 -1.542858 -2.723319 -4.352467 16.142 -13.60903 -0 19.52549 -0 -2.064435 -20.21075 11.84852 -1.840987 -1.33602 3.658038 3.651874 9.805769 -8.543949 0.8817836 20.17593 8.441112 3.928166 -27.04993 10.41361 4.670089 -18.04154 12.43312 88.46852 34.55554 -21.53281 -0 0 12.13977 -8.515118 9.269452 4.557768 7.193783 -21.4924 -0.7390376 -89.77118 19.55487 15.98119 0 0 -20.15891 15.74513 11.30186 -6.570385
1.947318 99.56433 32.65512 -2.494171 3.697823 3.565809 8.051151 -30.01087 4.617617 -0 14.20848 -0 -7.967283 -2.26868 -2.570136 -3.588592 15.53705 -12.86018 -0 27.21041 -0 -5.052607 -15.71138 9.570967 -1.852755 -1.23255 3.625717 3.605835 9.884537 -8.582647 0.7703878 20.09438 8.589619 4.04645 -26.91908 10.2726 4.562837 -17.93937 12.48152 88.66919 34.45494 -21.69587 -0 0 11.73475 -9.282047 9.528 4.992001 7.226648 -21.67934 -0.9232683 -89.31942 19.39664 15.52207 0 0 -20.94268 15.2871 10.79522 -6.091931
2.068083 100.2871 39.11095 -2.999219 3.242482 3.756264 8.810559 -26.10778 5.339961 -0 17.09249 -0 -8.244472 -3.296103 -2.499944 -2.703973 13.20217 -11.69746 -0 36.97342 -0 -6.861712 -10.34157 8.424979 -1.853896 -1.156436 3.654997 3.511574 10.00476 -8.59409 0.6805769 20.06208 8.648843 4.124423 -26.72634 10.07942 4.446866 -17.89734 12.51217 88.83222 34.29726 -21.76791 -0 0 11.49769 -10.15477 9.781663 5.440546 7.204495 -21.82685 -1.098871 -89.02235 19.321 15.3076 0 0 -21.28595 14.71219 10.39145 -5.463837
2.234077 101.505 45.5837 -3.103797 2.05449 3.287328 9.324117 -21.54689 6.19135 -0 17.97385 -0 -7.680588 -4.203066 -2.864736 -2.122911 8.955361 -10.12706 -0 48.07257 -0 -7.189743 -5.729034 8.76581 -1.841763 -1.102891 3.730752 3.400588 10.13576 -8.580354 0.6188499 20.06362 8.63079 4.161305 -26.52294 9.868988 4.363378 -17.89714 12.52235 88.92129 34.16619 -21.74408 -0 0 11.4064 -10.95655 10.00852 5.858959 7.120987 -21.90963 -1.247355 -88.88531 19.34256 15.33515 0 0 -21.26599 14.0926 10.09941 -4.72458
2.477634 103.0166 51.66224 -2.456845 0.09225649 2.413147 8.692366 -15.34469 5.923256 -0 16.52294 -0 -7.758729 -5.621318 -2.918033 -2.27494 2.451113 -9.045436 -0 57.96318 -0 -6.283934 -3.349473 10.15032 -1.819352 -1.066424 3.86714 3.265655 10.2806 -8.529849 0.5803433 20.10282 8.532752 4.158393 -26.29784 9.627162 4.316832 -17.94536 12.51621 88.90561 34.0771 -21.58162 -0 0 11.47748 -11.7232 10.21902 6.276519 6.963772 -21.91546 -1.369505 -88.92023 19.46647 15.64369 0 0 -20.85045 13.39525 9.907299 -3.832009
2.785 104.5871 57.04026 -1.087305 -1.334555 1.751845 6.737531 -8.488163 4.115177 -0 13.5392 -0 -9.034255 -8.059746 -1.683558 -3.168645 -5.786944 -8.863191 -0 62.80084 -0 -4.844357 -3.548286 11.18842 -1.805361 -1.045509 4.122448 3.040681 10.47994 -8.397129 0.5540964 20.22337 8.326732 4.110304 -25.95955 9.294543 4.242428 -18.1102 12.50876 88.74617 33.92738 -21.13445 -0 0 11.83993 -12.73867 10.41703 6.791006 6.711984 -21.82698 -1.476085 -89.17641 19.66914 16.3585 0 0 -19.79325 12.51285 9.80847 -2.741296
3.034199 105.8692 61.9976 0.3801553 -1.992488 1.414581 4.867657 -2.486384 3.223107 -0 10.85562 -0 -8.411953 -10.2633 -0.7678102 -3.457257 -13.24482 -8.341139 -0 61.6291 -0 -4.639219 -4.777004 12.40574 -1.841824 -1.053521 4.522849 2.683522 10.7258 -8.136444 0.536422 20.45498 8.010529 4.003396 -25.46162 8.875138 4.05794 -18.47954 12.51338 88.39067 33.62162 -20.24089 -0 0 12.6252 -14.124 10.52895 7.432389 6.395004 -21.61927 -1.548639 -89.65908 19.85252 17.53046 0 0 -18.02001 11.53713 9.841685 -1.66381
